<svg width="980" height="605" xmlns="http://www.w3.org/2000/svg">
 <!-- Created with SVG Editor - http://github.com/mzalive/SVG Editor/ -->
 <g>
  <title>background</title>
  <rect fill="none" id="canvas_background" height="607" width="982" y="-1" x="-1"/>
  <g display="none" overflow="visible" y="0" x="0" height="100%" width="100%" id="canvasGrid">
   <rect fill="url(#gridpattern)" stroke-width="0" y="0" x="0" height="100%" width="100%"/>
  </g>
 </g>
 <g>
  <title>Layer 1</title>
  <path id="svg_6" d="m447.5,506.5c-7,-4 -33,-15 -33.5,-15.5c0.5,0.5 -11.5,-22.5 -12,-23c0.5,0.5 -21.5,-6.5 -22,-7c0.5,0.5 -29.5,12.5 -30,12c0.5,0.5 -74.5,44.5 -75,44c0.5,0.5 -30.5,15.5 -31,15c0.5,0.5 -55.5,4.5 -56,4c0.5,0.5 -41.5,-7.5 -42,-8c0.5,0.5 -34.5,-19.5 -35,-20c0.5,0.5 -23.5,-15.5 -24,-16c0.5,0.5 -6.5,-16.5 -7,-17c0.5,0.5 48.5,-29.5 48,-30c0.5,0.5 -13.5,-16.5 -14,-17c0.5,0.5 -3.5,-17.5 -4,-18c0.5,0.5 31.5,-23.5 31,-24c0.5,0.5 75.5,-34.5 75,-35c0.5,0.5 26.5,-20.5 26,-21c0.5,0.5 -5.5,-18.5 -6,-19c0.5,0.5 -59.5,-31.5 -60,-32c0.5,0.5 -45.5,-27.5 -46,-28c0.5,0.5 -11.5,-16.5 -12,-17c0.5,0.5 22.5,-9.5 22,-10c0.5,0.5 22.5,-8.5 22,-9c0.5,0.5 -8.5,-17.5 -9,-18c0.5,0.5 -0.5,-13.5 -1,-14c0.5,0.5 20.5,-8.5 20,-9c0.5,0.5 19.5,6.5 19,6c0.5,0.5 10.5,16.5 10,16c0.5,0.5 36.5,43.5 36,43c0.5,0.5 16.5,7.5 16,7c0.5,0.5 19.5,-1.5 19,-2c0.5,0.5 18.5,-9.5 18,-10c0.5,0.5 9.5,-21.5 9,-22c0.5,0.5 -1.5,-15.5 -2,-16c0.5,0.5 -15.5,-29.5 -16,-30c0.5,0.5 2.5,-10.5 2,-11c0.5,0.5 46.5,2.5 47.5,2.5c1,0 14,-8 13.5,-8.5c0.5,0.5 -2.5,-14.5 -3,-15c0.5,0.5 32.5,-20.5 32,-21c0.5,0.5 3.5,-16.5 3,-17c0.5,0.5 -4.5,-35.5 -5,-36c0.5,0.5 14.5,-22.5 14,-23c0.5,0.5 18.5,-7.5 18,-8c0.5,0.5 24.5,10.5 24,10c0.5,0.5 19.5,24.5 19,24c0.5,0.5 23.5,4.5 23,4c0.5,0.5 31.5,-1.5 31,-2c0.5,0.5 5.5,14.5 5,14c0.5,0.5 -23.5,10.5 -24,10c0.5,0.5 -7.5,11.5 -8,11c0.5,0.5 1.5,27.5 1,27c0.5,0.5 -14.5,26.5 -15,26c0.5,0.5 3.5,17.5 3,17c0.5,0.5 26.5,12.5 26,12c0.5,0.5 12.5,21.5 12,21c0.5,0.5 -14.5,22.5 -15,22c0.5,0.5 -12.5,16.5 -13,16c0.5,0.5 -3.5,47.5 -4,47c0.5,0.5 -11.5,13.5 -12,13c0.5,0.5 -28.5,24.5 -29,24c0.5,0.5 -40.5,23.5 -41,23c0.5,0.5 -25.5,15.5 -26,15c0.5,0.5 -17.5,12.5 -18,12c0.5,0.5 7.5,19.5 7,19c0.5,0.5 27.5,18.5 27,18c0.5,0.5 40.5,20.5 40,20c0.5,0.5 41.5,-5.5 41,-6c0.5,0.5 71.5,43.5 71,43c0.5,0.5 53.5,32.5 53,32c0.5,0.5 29.5,9.5 29,9c0.5,0.5 14.5,-11.5 14,-12c0.5,0.5 6.5,-19.5 6,-20c0.5,0.5 21.5,-4.5 21,-5c0.5,0.5 15.5,12.5 15.5,13.5c0,1 14,20 13.5,19.5c0.5,0.5 11.5,13.5 13.5,13.5c2,0 26,5 25.5,4.5c0.5,0.5 93.5,-52.5 93,-53c0.5,0.5 40.5,-30.5 40,-31c0.5,0.5 35.5,-18.5 35,-19c0.5,0.5 63.5,-35.5 63,-36c0.5,0.5 19.5,-19.5 19,-20c0.5,0.5 -4.5,-52.5 -5,-53c0.5,0.5 -16.5,-21.5 -17,-22c0.5,0.5 -21.5,-8.5 -22,-9c0.5,0.5 -25.5,5.5 -26,5c0.5,0.5 -58.5,41.5 -59,41c0.5,0.5 -57.5,34.5 -58,34c0.5,0.5 -19.5,11.5 -20,11c0.5,0.5 -28.5,-7.5 -29,-8c0.5,0.5 -11.5,-13.5 -12,-14c0.5,0.5 -27.5,-26.5 -28,-27c0.5,0.5 3.5,-16.5 3,-17c0.5,0.5 29.5,-9.5 29,-10c0.5,0.5 73.5,-35.5 73,-36c0.5,0.5 21.5,-28.5 21,-29c0.5,0.5 -1.5,-26.5 -2,-27c0.5,0.5 -11.5,-16.5 -12,-17c0.5,0.5 -22.5,-14.5 -23,-15c0.5,0.5 -32.5,4.5 -33,4c0.5,0.5 -28.5,16.5 -29,16c0.5,0.5 -42.5,24.5 -43,24c0.5,0.5 -24.5,12.5 -25,12c0.5,0.5 -23.5,11.5 -24,11c0.5,0.5 -4.5,17.5 -5,17c0.5,0.5 -5.5,31.5 -6,31c0.5,0.5 -14.5,11.5 -15,11c0.5,0.5 -21.5,4.5 -22,4c0.5,0.5 -34.5,0.5 -35,0c0.5,0.5 -22.5,-11.5 -23,-12c0.5,0.5 -22.5,-38.5 -23,-39c0.5,0.5 7.5,-25.5 7,-26c0.5,0.5 21.5,-34.5 21,-35c0.5,0.5 15.5,-13.5 15,-14c0.5,0.5 28.5,-27.5 28,-28c0.5,0.5 23.5,-6.5 23,-7c0.5,0.5 35.5,-12.5 37.5,-14.5c2,-2 9,-11 8.5,-11.5c0.5,0.5 -10.5,-9.5 -11,-10c0.5,0.5 -12.5,-13.5 -13,-14c0.5,0.5 -1.5,-10.5 -2,-11c0.5,0.5 10.5,-31.5 10,-32c0.5,0.5 26.5,-22.5 26,-23c0.5,0.5 35.5,2.5 35,2c0.5,0.5 18.5,35.5 18,35c0.5,0.5 -1.5,20.5 -2,20c0.5,0.5 -31.5,19.5 -32,19c0.5,0.5 -9.5,25.5 -10,25c0.5,0.5 13.5,11.5 13,11c0.5,0.5 24.5,-2.5 24,-3c0.5,0.5 12.5,-27.5 12,-28c0.5,0.5 23.5,-19.5 23,-20c0.5,0.5 27.5,-3.5 27,-4c0.5,0.5 44.5,6.5 45.5,10.5c1,4 13,27 12.5,26.5c0.5,0.5 -6.5,14.5 -7,14c0.5,0.5 23.5,8.5 23,8c0.5,0.5 26.5,-30.5 26,-31c0.5,0.5 34.5,-6.5 34,-7c0.5,0.5 7.5,22.5 7,22c0.5,0.5 -23.5,13.5 -24.5,13.5c-1,0 -7,10 -7.5,9.5c0.5,0.5 18.5,21.5 18,21" opacity="0.5" fill-opacity="null" stroke-opacity="null" stroke-width="1.5" stroke="#000" fill="none"/>
 </g>
</svg>