<svg width="980" height="605" xmlns="http://www.w3.org/2000/svg"><path fill="none" d="M-1-1h982v607H-1z"/><g><path d="M447.5 506.5c-7-4-33-15-33.5-15.5.5.5-11.5-22.5-12-23 .5.5-21.5-6.5-22-7 .5.5-29.5 12.5-30 12 .5.5-74.5 44.5-75 44 .5.5-30.5 15.5-31 15 .5.5-55.5 4.5-56 4 .5.5-41.5-7.5-42-8 .5.5-34.5-19.5-35-20 .5.5-23.5-15.5-24-16 .5.5-6.5-16.5-7-17 .5.5 48.5-29.5 48-30 .5.5-13.5-16.5-14-17 .5.5-3.5-17.5-4-18 .5.5 31.5-23.5 31-24 .5.5 75.5-34.5 75-35 .5.5 26.5-20.5 26-21 .5.5-5.5-18.5-6-19 .5.5-59.5-31.5-60-32 .5.5-45.5-27.5-46-28 .5.5-11.5-16.5-12-17 .5.5 22.5-9.5 22-10 .5.5 22.5-8.5 22-9 .5.5-8.5-17.5-9-18 .5.5-.5-13.5-1-14 .5.5 20.5-8.5 20-9 .5.5 19.5 6.5 19 6 .5.5 10.5 16.5 10 16 .5.5 36.5 43.5 36 43 .5.5 16.5 7.5 16 7 .5.5 19.5-1.5 19-2 .5.5 18.5-9.5 18-10 .5.5 9.5-21.5 9-22 .5.5-1.5-15.5-2-16 .5.5-15.5-29.5-16-30 .5.5 2.5-10.5 2-11 .5.5 46.5 2.5 47.5 2.5s14-8 13.5-8.5c.5.5-2.5-14.5-3-15 .5.5 32.5-20.5 32-21 .5.5 3.5-16.5 3-17 .5.5-4.5-35.5-5-36 .5.5 14.5-22.5 14-23 .5.5 18.5-7.5 18-8 .5.5 24.5 10.5 24 10 .5.5 19.5 24.5 19 24 .5.5 23.5 4.5 23 4 .5.5 31.5-1.5 31-2 .5.5 5.5 14.5 5 14 .5.5-23.5 10.5-24 10 .5.5-7.5 11.5-8 11 .5.5 1.5 27.5 1 27 .5.5-14.5 26.5-15 26 .5.5 3.5 17.5 3 17 .5.5 26.5 12.5 26 12 .5.5 12.5 21.5 12 21 .5.5-14.5 22.5-15 22 .5.5-12.5 16.5-13 16 .5.5-3.5 47.5-4 47 .5.5-11.5 13.5-12 13 .5.5-28.5 24.5-29 24 .5.5-40.5 23.5-41 23 .5.5-25.5 15.5-26 15 .5.5-17.5 12.5-18 12 .5.5 7.5 19.5 7 19 .5.5 27.5 18.5 27 18 .5.5 40.5 20.5 40 20 .5.5 41.5-5.5 41-6 .5.5 71.5 43.5 71 43 .5.5 53.5 32.5 53 32 .5.5 29.5 9.5 29 9 .5.5 14.5-11.5 14-12 .5.5 6.5-19.5 6-20 .5.5 21.5-4.5 21-5 .5.5 15.5 12.5 15.5 13.5s14 20 13.5 19.5c.5.5 11.5 13.5 13.5 13.5s26 5 25.5 4.5c.5.5 93.5-52.5 93-53 .5.5 40.5-30.5 40-31 .5.5 35.5-18.5 35-19 .5.5 63.5-35.5 63-36 .5.5 19.5-19.5 19-20 .5.5-4.5-52.5-5-53 .5.5-16.5-21.5-17-22 .5.5-21.5-8.5-22-9 .5.5-25.5 5.5-26 5 .5.5-58.5 41.5-59 41 .5.5-57.5 34.5-58 34 .5.5-19.5 11.5-20 11 .5.5-28.5-7.5-29-8 .5.5-11.5-13.5-12-14 .5.5-27.5-26.5-28-27 .5.5 3.5-16.5 3-17 .5.5 29.5-9.5 29-10 .5.5 73.5-35.5 73-36 .5.5 21.5-28.5 21-29 .5.5-1.5-26.5-2-27 .5.5-11.5-16.5-12-17 .5.5-22.5-14.5-23-15 .5.5-32.5 4.5-33 4 .5.5-28.5 16.5-29 16 .5.5-42.5 24.5-43 24 .5.5-24.5 12.5-25 12 .5.5-23.5 11.5-24 11 .5.5-4.5 17.5-5 17 .5.5-5.5 31.5-6 31 .5.5-14.5 11.5-15 11 .5.5-21.5 4.5-22 4 .5.5-34.5.5-35 0 .5.5-22.5-11.5-23-12 .5.5-22.5-38.5-23-39 .5.5 7.5-25.5 7-26 .5.5 21.5-34.5 21-35 .5.5 15.5-13.5 15-14 .5.5 28.5-27.5 28-28 .5.5 23.5-6.5 23-7 .5.5 35.5-12.5 37.5-14.5s9-11 8.5-11.5c.5.5-10.5-9.5-11-10 .5.5-12.5-13.5-13-14 .5.5-1.5-10.5-2-11 .5.5 10.5-31.5 10-32 .5.5 26.5-22.5 26-23 .5.5 35.5 2.5 35 2 .5.5 18.5 35.5 18 35 .5.5-1.5 20.5-2 20 .5.5-31.5 19.5-32 19 .5.5-9.5 25.5-10 25 .5.5 13.5 11.5 13 11 .5.5 24.5-2.5 24-3 .5.5 12.5-27.5 12-28 .5.5 23.5-19.5 23-20 .5.5 27.5-3.5 27-4 .5.5 44.5 6.5 45.5 10.5s13 27 12.5 26.5c.5.5-6.5 14.5-7 14 .5.5 23.5 8.5 23 8 .5.5 26.5-30.5 26-31 .5.5 34.5-6.5 34-7 .5.5 7.5 22.5 7 22 .5.5-23.5 13.5-24.5 13.5s-7 10-7.5 9.5c.5.5 18.5 21.5 18 21" opacity=".5" stroke-opacity="null" stroke-width="1.5" stroke="#000" fill="none"/></g></svg>